# xmcd CD database file
#
# Track frame offsets:
#	150
#	52512
#	78578
#	102111
#	115233
#	137674
#	163116
#	185547
#	198969
#	214479
#	234056
#	249734
#	266593
#	284851
#	305531
#	324189
#
# Disc length: 4557 seconds
#
# Revision: 0
# Processed by: cddbd v1.5.2PL0 Copyright (c) Steve Scherf et al.
# Submitted via: CDex 1.70beta2
#
DISCID=e111cb10
DTITLE=Clifford Brown - Four Classic Albums CD2
DYEAR=1954
DGENRE=Jazz
TTITLE0=Medley
TTITLE1=Cherokee
TTITLE2=Jacqui
TTITLE3=Swingin'
TTITLE4=Lands End
TTITLE5=George's Dilemma
TTITLE6=Sandu
TTITLE7=Gerkin for Perkin
TTITLE8=If I Love Again
TTITLE9=Take the A Train
TTITLE10=Cherokee
TTITLE11=Easy Living
TTITLE12=Wail Bait
TTITLE13=Minor Mood
TTITLE14=Hymn of the Orient
TTITLE15=Brownie Eyes
EXTD=YEAR: 1954
EXTT0=
EXTT1=
EXTT2=
EXTT3=
EXTT4=
EXTT5=
EXTT6=
EXTT7=
EXTT8=
EXTT9=
EXTT10=
EXTT11=
EXTT12=
EXTT13=
EXTT14=
EXTT15=
PLAYORDER=
